<svg width="36" height="32" viewBox="0 0 36 32" fill="none" xmlns="http://www.w3.org/2000/svg">
<path d="M0 29.8326C0 30.6362 0.535714 31.1552 1.33929 31.1552H34.6373C35.3739 31.1552 35.9933 30.5692 35.9933 29.8159C35.9933 29.0793 35.3739 28.4766 34.6373 28.4766H3.16406C2.8125 28.4766 2.69531 28.3595 2.69531 28.0079V1.54021C2.69531 0.820348 2.09263 0.200928 1.35603 0.200928C0.602679 0.200928 0 0.820348 0 1.54021V29.8326ZM1.75781 19.4197L12.5223 13.192L20.2734 19.8382L34.0513 11.6351L32.9967 9.92749L20.4074 17.4275L12.6897 10.8148L1.75781 17.1262V19.4197ZM12.3047 15.452C13.9453 15.452 15.2846 14.1128 15.2846 12.4721C15.2846 10.8315 13.9453 9.50896 12.3047 9.50896C10.6641 9.50896 9.32477 10.8315 9.32477 12.4721C9.32477 14.1128 10.6641 15.452 12.3047 15.452ZM20.2064 21.596C21.8471 21.596 23.1697 20.2567 23.1697 18.616C23.1697 16.9755 21.8471 15.6529 20.2064 15.6529C18.5659 15.6529 17.2266 16.9755 17.2266 18.616C17.2266 20.2567 18.5659 21.596 20.2064 21.596ZM32.8293 13.9788C34.4699 13.9788 35.8091 12.6395 35.8091 10.9989C35.8091 9.35829 34.4699 8.01901 32.8293 8.01901C31.1886 8.01901 29.8493 9.35829 29.8493 10.9989C29.8493 12.6395 31.1886 13.9788 32.8293 13.9788Z" fill="#FF914D"/>
</svg>
