<svg width="35" height="32" viewBox="0 0 35 32" fill="none" xmlns="http://www.w3.org/2000/svg">
<path fill-rule="evenodd" clip-rule="evenodd" d="M6.63021 5.51478C6.95297 4.46581 7.92214 3.75 9.01966 3.75H12.5C13.1904 3.75 13.75 3.19036 13.75 2.5C13.75 1.80964 13.1904 1.25 12.5 1.25H9.01966C6.82463 1.25 4.88629 2.68161 4.24076 4.77957L0.221105 17.8434C0.0745256 18.3198 0 18.8155 0 19.3139V26.25C0 29.0114 2.23858 31.25 5 31.25H30C32.7614 31.25 35 29.0114 35 26.25V19.3139C35 18.8155 34.9255 18.3198 34.7789 17.8434L30.7592 4.77957C30.1137 2.68161 28.1754 1.25 25.9803 1.25H22.5C21.8096 1.25 21.25 1.80964 21.25 2.5C21.25 3.19036 21.8096 3.75 22.5 3.75H25.9803C27.0779 3.75 28.047 4.46581 28.3698 5.51478L32.0575 17.5H27.3176C25.4238 17.5 23.6925 18.57 22.8455 20.2639L22.4184 21.118C21.995 21.965 21.1293 22.5 20.1824 22.5H14.8176C13.8707 22.5 13.005 21.965 12.5816 21.118L12.1545 20.2639C11.3075 18.57 9.57623 17.5 7.68237 17.5H2.94245L6.63021 5.51478Z" fill="#7FD858"/>
<path fill-rule="evenodd" clip-rule="evenodd" d="M17.5 0C18.1904 0 18.75 0.559644 18.75 1.25V11.9822L21.6161 9.11612C22.1043 8.62796 22.8957 8.62796 23.3839 9.11612C23.872 9.60427 23.872 10.3957 23.3839 10.8839L18.3839 15.8839C17.8957 16.372 17.1043 16.372 16.6161 15.8839L11.6161 10.8839C11.128 10.3957 11.128 9.60427 11.6161 9.11612C12.1043 8.62796 12.8957 8.62796 13.3839 9.11612L16.25 11.9822V1.25C16.25 0.559644 16.8096 0 17.5 0Z" fill="#7FD858"/>
</svg>
