<svg width="40" height="40" viewBox="0 0 40 40" fill="none" xmlns="http://www.w3.org/2000/svg">
<path d="M32.8237 22.7712V9.96428C32.8237 8.20647 32.0703 7.63728 30.6473 7.05134C28.6719 6.24777 22.2936 3.82031 20.3181 3.25112C19.866 3.13393 19.3806 3 18.9118 3C18.4431 3 17.9576 3.10045 17.5223 3.25112C15.5301 3.93749 9.15179 6.23102 7.17634 7.05134C5.77009 7.65402 5 8.20647 5 9.96428V22.7712C5 28.8817 8.26451 31.1417 17.7902 36.4822C18.2254 36.7166 18.644 36.817 18.9118 36.817C19.1797 36.817 19.615 36.7166 20.0334 36.4822C29.5424 31.125 32.8237 28.8817 32.8237 22.7712ZM18.5603 33.7199C18.3594 33.6696 18.1417 33.5524 17.8739 33.385C10.1563 28.6809 7.66183 27.3247 7.66183 22.1517V10.4833C7.66183 9.91407 7.76227 9.67969 8.23103 9.51228C10.8259 8.62499 15.7143 6.85045 18.2422 5.84598C18.3761 5.79575 18.4766 5.76228 18.5603 5.74554V33.7199Z" fill="#FF914D"/>
</svg>
