<svg width="40" height="40" viewBox="0 0 40 40" fill="none" xmlns="http://www.w3.org/2000/svg">
<g clip-path="url(#clip0_56_191)">
<path d="M0 20.7962C0 27.4785 3.9 33.3756 9.22944 36.2718C11.0824 37.3012 12.6177 34.8586 10.5706 33.6897C6.14118 31.247 3.01766 26.3967 3.01766 20.7962C3.01766 12.5611 9.65297 5.96602 17.9824 5.96602C26.3119 5.96602 33.0001 12.5611 33.0001 20.7962C33.0001 21.843 33.8118 22.349 34.5884 22.349C35.3118 22.349 36 21.8255 36 20.7962C36 11.0606 27.8295 3 17.9824 3C8.15295 3 0 11.0606 0 20.7962ZM7.12943 20.7962C7.12943 24.6869 9.28237 27.9496 11.8588 29.5896C13.6412 30.7759 15.1765 28.4206 13.6765 27.4087C11.4883 25.9955 10.0412 23.5703 10.0412 20.7962C10.0412 16.3995 13.5706 12.91 17.9824 12.91C22.3942 12.91 25.8 16.382 25.9589 20.7962C25.9941 21.5988 26.6119 22.2268 27.4235 22.2268C28.2354 22.2268 28.8707 21.5988 28.8707 20.7962C28.8707 14.899 23.947 10.0312 17.9824 10.0312C12.053 10.0312 7.12943 14.899 7.12943 20.7962ZM17.3118 33.428C17.2942 34.1084 18.1059 34.3353 18.5471 33.8991L21.2471 31.2296L24.2648 38.5923C24.4059 38.9239 24.7589 39.0809 25.0765 38.9587L26.8236 38.2609C27.1412 38.1212 27.2648 37.7548 27.1059 37.4234L23.947 30.1654L27.7413 30.0257C28.4118 29.9909 28.7294 29.3453 28.253 28.8568L18.6177 19.0514C18.1589 18.5978 17.4883 18.8595 17.4707 19.5051L17.3118 33.428Z" fill="#7FD858"/>
</g>
<defs>
<clipPath id="clip0_56_191">
<rect width="40" height="40" fill="white"/>
</clipPath>
</defs>
</svg>
